<svg width="24" height="24" viewBox="0 0 24 24" fill="none" xmlns="http://www.w3.org/2000/svg">
<path d="M12 15.5H7.5C6.10444 15.5 5.40665 15.5 4.83886 15.6722C3.56045 16.06 2.56004 17.0605 2.17224 18.3389C2 18.9067 2 19.6044 2 21M14.5 7.5C14.5 9.98528 12.4853 12 10 12C7.51472 12 5.5 9.98528 5.5 7.5C5.5 5.01472 7.51472 3 10 3C12.4853 3 14.5 5.01472 14.5 7.5ZM21.0872 15.8699C22.3119 14.6452 22.3119 12.6597 21.0872 11.435C19.8625 10.2103 17.877 10.2103 16.6523 11.435C15.4277 12.6597 15.4277 14.6452 16.6523 15.8699C16.7535 15.971 16.8598 16.0638 16.9705 16.1482C17.1525 16.2871 17.2435 16.3566 17.287 16.4146C17.3323 16.475 17.3512 16.5131 17.3717 16.5858C17.3915 16.6556 17.3915 16.7438 17.3915 16.9201L17.3915 20.6975C17.3915 20.8253 17.3915 20.8893 17.4059 20.9494C17.4187 21.0027 17.4398 21.0537 17.4685 21.1005C17.5008 21.1532 17.546 21.1984 17.6364 21.2888L18.2784 21.9309C18.4854 22.1379 18.5889 22.2413 18.7082 22.2801C18.8132 22.3142 18.9263 22.3142 19.0313 22.2801C19.1506 22.2413 19.2541 22.1379 19.4611 21.9309L19.9785 21.4135C20.1826 21.2094 20.1826 20.8784 19.9785 20.6743V20.6743C19.7744 20.4702 19.7744 20.1393 19.9785 19.9352V19.9352C20.1826 19.7311 20.1826 19.4001 19.9785 19.196V19.196C19.7744 18.9919 19.7744 18.661 19.9785 18.4569L20.1316 18.3038C20.2702 18.1652 20.348 17.9772 20.348 17.7811V16.9201C20.348 16.7438 20.348 16.6556 20.3678 16.5858C20.3883 16.5131 20.4072 16.475 20.4525 16.4146C20.496 16.3566 20.587 16.2871 20.769 16.1482C20.8797 16.0638 20.986 15.971 21.0872 15.8699Z" stroke="#FCFCFD" stroke-width="1.5" stroke-linecap="round" stroke-linejoin="round"/>
</svg>
