<svg width="24" height="24" viewBox="0 0 24 24" fill="none" xmlns="http://www.w3.org/2000/svg">
<g clip-path="url(#clip0_2474_24232)">
<path fill-rule="evenodd" clip-rule="evenodd" d="M4 6V18H20V6H4Z" fill="#2E42A5"/>
<mask id="mask0_2474_24232" style="mask-type:luminance" maskUnits="userSpaceOnUse" x="4" y="6" width="16" height="12">
<path fill-rule="evenodd" clip-rule="evenodd" d="M4 6V18H20V6H4Z" fill="white"/>
</mask>
<g mask="url(#mask0_2474_24232)">
<path d="M2.21851 17.1428L5.73935 18.6318L20.08 7.61903L21.9371 5.40629L18.1721 4.90861L12.3229 9.65434L7.6149 12.8519L2.21851 17.1428Z" fill="white"/>
<path d="M2.70056 18.1862L4.49427 19.0503L21.2703 5.20082H18.7517L2.70056 18.1862Z" fill="#F50100"/>
<path d="M21.7816 17.1428L18.2608 18.6318L3.92015 7.61903L2.06299 5.40629L5.82802 4.90861L11.6772 9.65434L16.3852 12.8519L21.7816 17.1428Z" fill="white"/>
<path d="M21.6615 17.8918L19.8678 18.7559L12.7244 12.8262L10.6065 12.1637L1.88431 5.41407H4.40288L13.1202 12.0035L15.4357 12.7979L21.6615 17.8918Z" fill="#F50100"/>
<mask id="path-11-inside-1_2474_24232" fill="white">
<path fill-rule="evenodd" clip-rule="evenodd" d="M13.8889 5H10.1111V10H3.01379V14H10.1111V19H13.8889V14H21.0138V10H13.8889V5Z"/>
</mask>
<path fill-rule="evenodd" clip-rule="evenodd" d="M13.8889 5H10.1111V10H3.01379V14H10.1111V19H13.8889V14H21.0138V10H13.8889V5Z" fill="#F50100"/>
<path d="M10.1111 5V4H9.11114V5H10.1111ZM13.8889 5H14.8889V4H13.8889V5ZM10.1111 10V11H11.1111V10H10.1111ZM3.01379 10V9H2.01379V10H3.01379ZM3.01379 14H2.01379V15H3.01379V14ZM10.1111 14H11.1111V13H10.1111V14ZM10.1111 19H9.11114V20H10.1111V19ZM13.8889 19V20H14.8889V19H13.8889ZM13.8889 14V13H12.8889V14H13.8889ZM21.0138 14V15H22.0138V14H21.0138ZM21.0138 10H22.0138V9H21.0138V10ZM13.8889 10H12.8889V11H13.8889V10ZM10.1111 6H13.8889V4H10.1111V6ZM11.1111 10V5H9.11114V10H11.1111ZM3.01379 11H10.1111V9H3.01379V11ZM4.01379 14V10H2.01379V14H4.01379ZM10.1111 13H3.01379V15H10.1111V13ZM11.1111 19V14H9.11114V19H11.1111ZM13.8889 18H10.1111V20H13.8889V18ZM12.8889 14V19H14.8889V14H12.8889ZM21.0138 13H13.8889V15H21.0138V13ZM20.0138 10V14H22.0138V10H20.0138ZM13.8889 11H21.0138V9H13.8889V11ZM12.8889 5V10H14.8889V5H12.8889Z" fill="white" mask="url(#path-11-inside-1_2474_24232)"/>
</g>
</g>
<rect x="3.5" y="5.5" width="17" height="13" stroke="black" stroke-opacity="0.1"/>
<defs>
<clipPath id="clip0_2474_24232">
<rect x="4" y="6" width="16" height="12" fill="white"/>
</clipPath>
</defs>
</svg>
