<svg width="24" height="24" viewBox="0 0 24 24" fill="none" xmlns="http://www.w3.org/2000/svg">
<path d="M14.3909 18.015C14.8198 19.6154 13.87 21.2604 12.2696 21.6893C10.6692 22.1181 9.0242 21.1683 8.59537 19.5679M10.8915 5.74109C11.1957 5.19379 11.2959 4.53229 11.121 3.8797C10.7637 2.54603 9.39282 1.75457 8.05915 2.11193C6.72549 2.46928 5.93403 3.84013 6.29138 5.17379C6.46625 5.82639 6.88378 6.34916 7.42088 6.67103M16.2358 9.44553C15.8789 8.1134 14.926 6.99944 13.5867 6.3487C12.2474 5.69797 10.6315 5.56377 9.09443 5.97563C7.55735 6.38749 6.22502 7.31167 5.39054 8.54486C4.55606 9.77805 4.28779 11.2192 4.64473 12.5514C5.2353 14.7554 5.12063 16.5138 4.74768 17.8499C4.32261 19.3728 4.11008 20.1342 4.16749 20.2871C4.23318 20.462 4.2807 20.5101 4.45494 20.5776C4.60723 20.6366 5.247 20.4651 6.52654 20.1223L18.3916 16.9431C19.6711 16.6002 20.3109 16.4288 20.4133 16.3015C20.5304 16.1559 20.5476 16.0906 20.517 15.9063C20.4903 15.7451 19.9255 15.192 18.796 14.0857C17.8049 13.115 16.8264 11.6496 16.2358 9.44553Z" stroke="currentColor" stroke-linecap="round" stroke-linejoin="round"/>
</svg>
