<svg width="24" height="24" viewBox="0 0 24 24" fill="none" xmlns="http://www.w3.org/2000/svg">
<path d="M9.75 20.75L11.223 21.5683C11.5066 21.7258 11.6484 21.8046 11.7986 21.8355C11.9315 21.8628 12.0685 21.8628 12.2015 21.8355C12.3516 21.8046 12.4934 21.7258 12.777 21.5683L14.25 20.75M5.25 18.25L3.82297 17.4572C3.52346 17.2908 3.37368 17.2076 3.26463 17.0892C3.16816 16.9845 3.09515 16.8605 3.05048 16.7253C3 16.5725 3 16.4012 3 16.0585V14.5M3 9.49996V7.94141C3 7.59877 3 7.42744 3.05048 7.27465C3.09515 7.13947 3.16816 7.01539 3.26463 6.9107C3.37368 6.79236 3.52345 6.70916 3.82297 6.54276L5.25 5.74996M9.75 3.24996L11.223 2.43164C11.5066 2.27409 11.6484 2.19531 11.7986 2.16442C11.9315 2.13709 12.0685 2.13709 12.2015 2.16442C12.3516 2.19531 12.4934 2.27409 12.777 2.43164L14.25 3.24996M18.75 5.74996L20.177 6.54276C20.4766 6.70916 20.6263 6.79236 20.7354 6.9107C20.8318 7.01539 20.9049 7.13947 20.9495 7.27464C21 7.42744 21 7.59876 21 7.94141V9.49996M21 14.5V16.0585C21 16.4012 21 16.5725 20.9495 16.7253C20.9049 16.8605 20.8318 16.9845 20.7354 17.0892C20.6263 17.2076 20.4766 17.2908 20.177 17.4572L18.75 18.25M9.75 10.75L12 12M12 12L14.25 10.75M12 12V14.5M3 6.99996L5.25 8.24996M18.75 8.24996L21 6.99996M12 19.5V22" stroke="currentColor" stroke-linecap="round" stroke-linejoin="round"/>
</svg>
