<svg width="24" height="24" viewBox="0 0 24 24" fill="none" xmlns="http://www.w3.org/2000/svg">
<path d="M17 14.5V11.4944C17 11.315 17 11.2252 16.9727 11.146C16.9485 11.0759 16.9091 11.0121 16.8572 10.9592C16.7986 10.8993 16.7183 10.8592 16.5578 10.7789L12 8.5M4 9.5V16.3066C4 16.6785 4 16.8645 4.05802 17.0273C4.10931 17.1712 4.1929 17.3015 4.30238 17.4081C4.42622 17.5287 4.59527 17.6062 4.93335 17.7611L11.3334 20.6945C11.5786 20.8069 11.7012 20.8631 11.8289 20.8852C11.9421 20.9049 12.0579 20.9049 12.1711 20.8852C12.2988 20.8631 12.4214 20.8069 12.6666 20.6945L19.0666 17.7611C19.4047 17.6062 19.5738 17.5287 19.6976 17.4081C19.8071 17.3015 19.8907 17.1712 19.942 17.0273C20 16.8645 20 16.6785 20 16.3066V9.5M2 8.5L11.6422 3.67889C11.7734 3.6133 11.839 3.5805 11.9078 3.5676C11.9687 3.55616 12.0313 3.55616 12.0922 3.5676C12.161 3.5805 12.2266 3.6133 12.3578 3.67889L22 8.5L12.3578 13.3211C12.2266 13.3867 12.161 13.4195 12.0922 13.4324C12.0313 13.4438 11.9687 13.4438 11.9078 13.4324C11.839 13.4195 11.7734 13.3867 11.6422 13.3211L2 8.5Z" stroke="currentColor" stroke-linecap="round" stroke-linejoin="round"/>
</svg>
