<svg width="24" height="24" viewBox="0 0 24 24" fill="none" xmlns="http://www.w3.org/2000/svg">
<path d="M19 21H20.0104C20.9815 21 21.4671 21 21.7348 20.7975C21.968 20.6211 22.1123 20.3515 22.1297 20.0596C22.1497 19.7246 21.8803 19.3205 21.3416 18.5125L18.3313 13.9969C17.8861 13.3292 17.6636 12.9954 17.3831 12.8791C17.1378 12.7773 16.8622 12.7773 16.6169 12.8791C16.3364 12.9954 16.1138 13.3292 15.6687 13.9969L14.9245 15.1132M19 21L11.3155 9.90018C10.8736 9.26182 10.6526 8.94264 10.3766 8.83044C10.1351 8.73228 9.86486 8.73228 9.62341 8.83044C9.34739 8.94264 9.12642 9.26182 8.68448 9.90018L2.73819 18.4893C2.17516 19.3025 1.89365 19.7092 1.90967 20.0473C1.92363 20.3419 2.06685 20.6152 2.30106 20.7943C2.56999 21 3.06456 21 4.05369 21H19ZM21 6C21 7.65685 19.6568 9 18 9C16.3431 9 15 7.65685 15 6C15 4.34315 16.3431 3 18 3C19.6568 3 21 4.34315 21 6Z" stroke="currentColor" stroke-linecap="round" stroke-linejoin="round"/>
</svg>
