<svg width="24" height="24" viewBox="0 0 24 24" fill="none" xmlns="http://www.w3.org/2000/svg">
<path d="M21 9.25001H12M21 4.00001L12 4.00001M21 14.75H3M21 20H3M4.28 2.96001L8.14667 5.86001C8.43616 6.07713 8.5809 6.18569 8.63266 6.31878C8.678 6.43535 8.678 6.56468 8.63266 6.68125C8.5809 6.81434 8.43616 6.92289 8.14667 7.14001L4.28 10.04C3.86802 10.349 3.66203 10.5035 3.48961 10.4999C3.33956 10.4968 3.19885 10.4264 3.10632 10.3083C3 10.1725 3 9.91499 3 9.40001V3.60001C3 3.08504 3 2.82755 3.10632 2.69176C3.19885 2.5736 3.33956 2.50324 3.48961 2.50012C3.66203 2.49654 3.86802 2.65103 4.28 2.96001Z" stroke="currentColor" stroke-linecap="round" stroke-linejoin="round"/>
</svg>
