<svg width="24" height="24" viewBox="0 0 24 24" fill="none" xmlns="http://www.w3.org/2000/svg">
<path d="M13 6L6.50182 7.29964C6.13883 7.37224 5.95733 7.40854 5.80952 7.4968C5.67886 7.57484 5.56772 7.68167 5.4846 7.80916C5.39057 7.95337 5.34714 8.13329 5.26028 8.49314L2 22M2 22L15.5069 18.7397C15.8667 18.6529 16.0466 18.6094 16.1908 18.5154C16.3183 18.4323 16.4252 18.3211 16.5032 18.1905C16.5915 18.0427 16.6278 17.8612 16.7004 17.4982L18 11M2 22L9.586 14.414M20.8686 7.86863L16.1314 3.13137C15.7354 2.73536 15.5373 2.53735 15.309 2.46316C15.1082 2.3979 14.8918 2.3979 14.691 2.46316C14.4627 2.53735 14.2646 2.73536 13.8686 3.13137L13.1314 3.86863C12.7354 4.26465 12.5373 4.46266 12.4632 4.69098C12.3979 4.89183 12.3979 5.10818 12.4632 5.30902C12.5373 5.53735 12.7354 5.73536 13.1314 6.13137L17.8686 10.8686C18.2646 11.2646 18.4627 11.4627 18.691 11.5368C18.8918 11.6021 19.1082 11.6021 19.309 11.5368C19.5373 11.4627 19.7354 11.2646 20.1314 10.8686L20.8686 10.1314C21.2646 9.73536 21.4627 9.53735 21.5368 9.30902C21.6021 9.10817 21.6021 8.89183 21.5368 8.69098C21.4627 8.46266 21.2646 8.26465 20.8686 7.86863ZM11 11C12.1046 11 13 11.8954 13 13C13 14.1046 12.1046 15 11 15C9.89543 15 9 14.1046 9 13C9 11.8954 9.89543 11 11 11Z" stroke="currentColor" stroke-linecap="round" stroke-linejoin="round"/>
</svg>
