<svg width="24" height="24" viewBox="0 0 24 24" fill="none" xmlns="http://www.w3.org/2000/svg">
<path d="M16 5.00001L16 19M10 4.00001L10 20M3 12H21M3 5.98918L3 18.0108C3 19.3749 3 20.0569 3.28134 20.5296C3.52803 20.9441 3.9162 21.2555 4.37434 21.4064C4.89685 21.5785 5.56262 21.4305 6.89418 21.1346L18.4942 18.5569C19.3883 18.3582 19.8354 18.2588 20.1691 18.0184C20.4634 17.8063 20.6945 17.5182 20.8377 17.1849C21 16.807 21 16.349 21 15.4331V8.56696C21 7.65102 21 7.19306 20.8377 6.81514C20.6945 6.4818 20.4634 6.19367 20.1691 5.98162C19.8354 5.7412 19.3883 5.64185 18.4942 5.44316L6.89418 2.86538C5.56262 2.56948 4.89685 2.42153 4.37434 2.59362C3.9162 2.74451 3.52803 3.0559 3.28134 3.47039C3 3.94312 3 4.62514 3 5.98918Z" stroke="currentColor" stroke-linecap="round" stroke-linejoin="round"/>
</svg>
