<svg width="24" height="24" viewBox="0 0 24 24" fill="none" xmlns="http://www.w3.org/2000/svg">
<path d="M8.3767 15.6164L2.71985 21.2733M11.6944 6.64194L10.1335 8.20282C10.0062 8.33015 9.94252 8.39381 9.86999 8.4444C9.80561 8.4893 9.73616 8.52646 9.66309 8.55512C9.58077 8.58741 9.49249 8.60507 9.31592 8.64038L5.65145 9.37327C4.69915 9.56373 4.223 9.65897 4.00024 9.91002C3.80617 10.1287 3.71755 10.4214 3.75771 10.711C3.8038 11.0435 4.14715 11.3869 4.83387 12.0736L11.9196 19.1593C12.6063 19.846 12.9497 20.1894 13.2821 20.2355C13.5718 20.2756 13.8645 20.187 14.0832 19.9929C14.3342 19.7702 14.4294 19.294 14.6199 18.3417L15.3528 14.6773C15.3881 14.5007 15.4058 14.4124 15.4381 14.3301C15.4667 14.257 15.5039 14.1876 15.5488 14.1232C15.5994 14.0507 15.663 13.987 15.7904 13.8597L17.3512 12.2988C17.4326 12.2174 17.4734 12.1767 17.5181 12.1411C17.5578 12.1096 17.5999 12.0811 17.644 12.0559C17.6936 12.0276 17.7465 12.0049 17.8523 11.9595L20.3467 10.8905C21.0744 10.5786 21.4383 10.4227 21.6035 10.1707C21.7481 9.95037 21.7998 9.68187 21.7474 9.4236C21.6875 9.12826 21.4076 8.84834 20.8478 8.28852L15.7047 3.14538C15.1448 2.58555 14.8649 2.30564 14.5696 2.24577C14.3113 2.19341 14.0428 2.24512 13.8225 2.38965C13.5705 2.55493 13.4145 2.91878 13.1027 3.64648L12.0337 6.14084C11.9883 6.24665 11.9656 6.29956 11.9373 6.34917C11.9121 6.39325 11.8836 6.43534 11.852 6.47509C11.8165 6.51983 11.7758 6.56053 11.6944 6.64194Z" stroke="currentColor" stroke-linecap="round" stroke-linejoin="round"/>
</svg>
