<svg width="24" height="24" viewBox="0 0 24 24" fill="none" xmlns="http://www.w3.org/2000/svg">
<path d="M17.7448 2.81286C18.7096 1.81638 20.3036 1.80349 21.2844 2.78424C22.2382 3.73811 22.256 5.27908 21.3244 6.25469L18.5457 9.16445C18.3279 9.39252 18.219 9.50656 18.1519 9.64012C18.0925 9.75835 18.0571 9.8872 18.0479 10.0192C18.0375 10.1683 18.0729 10.3219 18.1438 10.6292L19.8717 18.1168C19.9445 18.4322 19.9809 18.5899 19.9691 18.7425C19.9588 18.8775 19.921 19.009 19.8583 19.129C19.7874 19.2646 19.673 19.379 19.4441 19.6079L19.0733 19.9787C18.4671 20.5848 18.1641 20.8879 17.8539 20.9428C17.583 20.9907 17.3044 20.9249 17.0835 20.7609C16.8306 20.5731 16.6951 20.1665 16.424 19.3533L14.4143 13.324L11.0689 16.6693C10.8693 16.869 10.7694 16.9689 10.7026 17.0864C10.6435 17.1906 10.6035 17.3045 10.5846 17.4228C10.5633 17.5564 10.5789 17.6967 10.6101 17.9774L10.7938 19.6308C10.825 19.9115 10.8406 20.0518 10.8193 20.1853C10.8004 20.3036 10.7605 20.4176 10.7013 20.5217C10.6345 20.6393 10.5347 20.7392 10.335 20.9388L10.1375 21.1363C9.6644 21.6094 9.42787 21.8459 9.16502 21.9144C8.93448 21.9745 8.69005 21.9503 8.47577 21.8462C8.23146 21.7275 8.04591 21.4491 7.67481 20.8925L6.10649 18.54C6.04019 18.4406 6.00704 18.3908 5.96855 18.3457C5.93436 18.3057 5.89707 18.2684 5.857 18.2342C5.81191 18.1957 5.76218 18.1626 5.66273 18.0963L3.31025 16.5279C2.7536 16.1568 2.47527 15.9713 2.35655 15.727C2.25242 15.5127 2.22822 15.2683 2.2883 15.0377C2.35681 14.7749 2.59334 14.5383 3.06639 14.0653L3.2639 13.8678C3.46359 13.6681 3.56343 13.5682 3.68101 13.5015C3.78517 13.4423 3.89912 13.4023 4.01742 13.3834C4.15095 13.3622 4.29129 13.3777 4.57196 13.4089L6.22535 13.5926C6.50602 13.6238 6.64636 13.6394 6.77989 13.6181C6.89819 13.5993 7.01214 13.5593 7.1163 13.5001C7.23388 13.4333 7.33372 13.3335 7.53341 13.1338L10.8787 9.78848L4.84945 7.77872C4.03623 7.50764 3.62961 7.3721 3.44182 7.11919C3.27783 6.89836 3.21206 6.61972 3.25997 6.34886C3.31483 6.03867 3.6179 5.7356 4.22405 5.12945L4.59482 4.75868C4.82371 4.52979 4.93816 4.41534 5.07375 4.34445C5.19376 4.28171 5.32527 4.24399 5.46029 4.23359C5.61284 4.22184 5.77055 4.25824 6.08596 4.33103L13.5451 6.05236C13.8551 6.12389 14.01 6.15966 14.1597 6.14902C14.3041 6.13874 14.4446 6.09721 14.5715 6.0273C14.7028 5.95488 14.8135 5.84062 15.0347 5.61208L17.7448 2.81286Z" stroke="currentColor" stroke-linecap="round" stroke-linejoin="round"/>
</svg>
