<svg width="24" height="24" viewBox="0 0 24 24" fill="none" xmlns="http://www.w3.org/2000/svg">
<path d="M16 8.00001V4.50067C16 3.66893 16 3.25306 15.8248 2.99748C15.6717 2.77419 15.4346 2.62251 15.1678 2.57709C14.8623 2.52511 14.4847 2.69938 13.7295 3.04793L4.85901 7.142C4.18551 7.45285 3.84875 7.60828 3.60211 7.84933C3.38406 8.06243 3.21762 8.32256 3.1155 8.60984C3 8.9348 3 9.30569 3 10.0475V15M16.5 14.5H16.51M3 11.2L3 17.8C3 18.9201 3 19.4802 3.21799 19.908C3.40973 20.2843 3.71569 20.5903 4.09202 20.782C4.51984 21 5.07989 21 6.2 21H17.8C18.9201 21 19.4802 21 19.908 20.782C20.2843 20.5903 20.5903 20.2843 20.782 19.908C21 19.4802 21 18.9201 21 17.8V11.2C21 10.0799 21 9.51985 20.782 9.09203C20.5903 8.71571 20.2843 8.40975 19.908 8.218C19.4802 8.00001 18.9201 8.00001 17.8 8.00001L6.2 8.00001C5.0799 8.00001 4.51984 8.00001 4.09202 8.218C3.7157 8.40974 3.40973 8.71571 3.21799 9.09203C3 9.51985 3 10.0799 3 11.2ZM17 14.5C17 14.7762 16.7761 15 16.5 15C16.2239 15 16 14.7762 16 14.5C16 14.2239 16.2239 14 16.5 14C16.7761 14 17 14.2239 17 14.5Z" stroke="currentColor" stroke-linecap="round" stroke-linejoin="round"/>
</svg>
