<svg width="25" height="24" viewBox="0 0 25 24" fill="none" xmlns="http://www.w3.org/2000/svg">
<path d="M21.3003 8.16282C21.2 8.22131 18.813 9.45576 18.813 12.1928C18.9255 15.3142 21.8253 16.4089 21.875 16.4089C21.8253 16.4674 21.4372 17.9001 20.2878 19.402C19.3755 20.6957 18.363 22 16.8255 22C15.363 22 14.838 21.1378 13.1505 21.1378C11.3383 21.1378 10.8255 22 9.43801 22C7.90051 22 6.813 20.6258 5.85105 19.3442C4.60131 17.6669 3.53908 15.0347 3.50158 12.5073C3.47631 11.168 3.75186 9.85154 4.45131 8.73332C5.43854 7.17223 7.20105 6.1125 9.12578 6.07756C10.6005 6.03122 11.913 7.02105 12.813 7.02105C13.6755 7.02105 15.288 6.07756 17.1125 6.07756C17.9 6.07832 20 6.29938 21.3003 8.16282ZM12.6883 5.81016C12.4258 4.58711 13.1505 3.36406 13.8255 2.58389C14.688 1.64039 16.0503 1 17.225 1C17.3 2.22305 16.8247 3.42255 15.9753 4.29616C15.213 5.23965 13.9005 5.94993 12.6883 5.81016Z" fill="black"/>
</svg>
