<svg width="24" height="24" viewBox="0 0 24 24" fill="none" xmlns="http://www.w3.org/2000/svg">
<path d="M20.8003 8.16282C20.7 8.22131 18.313 9.45576 18.313 12.1928C18.4255 15.3142 21.3253 16.4089 21.375 16.4089C21.3253 16.4674 20.9372 17.9001 19.7878 19.402C18.8755 20.6957 17.863 22 16.3255 22C14.863 22 14.338 21.1378 12.6505 21.1378C10.8383 21.1378 10.3255 22 8.93801 22C7.40051 22 6.313 20.6258 5.35105 19.3442C4.10131 17.6669 3.03908 15.0347 3.00158 12.5073C2.97631 11.168 3.25186 9.85154 3.95131 8.73332C4.93854 7.17223 6.70105 6.1125 8.62578 6.07756C10.1005 6.03122 11.413 7.02105 12.313 7.02105C13.1755 7.02105 14.788 6.07756 16.6125 6.07756C17.4 6.07832 19.5 6.29938 20.8003 8.16282ZM12.1883 5.81016C11.9258 4.58711 12.6505 3.36406 13.3255 2.58389C14.188 1.64039 15.5503 1 16.725 1C16.8 2.22305 16.3247 3.42255 15.4753 4.29616C14.713 5.23965 13.4005 5.94994 12.1883 5.81016Z" fill="#FCFCFD"/>
</svg>
