<svg width="24" height="24" viewBox="0 0 24 24" fill="none" xmlns="http://www.w3.org/2000/svg">
<path fill-rule="evenodd" clip-rule="evenodd" d="M12 22.5C17.799 22.5 22.5 17.799 22.5 12C22.5 6.20101 17.799 1.5 12 1.5C6.20101 1.5 1.5 6.20101 1.5 12C1.5 17.1752 5.24405 21.4759 10.1712 22.3413V22.3759C10.7075 22.458 11.2562 22.5 11.8151 22.5C11.8462 22.5 11.8773 22.4999 11.9084 22.4996C11.9389 22.4999 11.9694 22.5 12 22.5ZM11.9084 22.4996C12.4351 22.4952 12.9525 22.4534 13.4589 22.3759V15.2112H15.9103L16.3767 12.2476H13.4589V10.3252C13.4589 9.51428 13.8657 8.7233 15.1726 8.7233H16.5V6.20024C16.5 6.20024 15.2959 6 14.1452 6C11.7411 6 10.1712 7.4197 10.1712 9.98883V12.2476H7.5V15.2112H10.1712V22.3413C10.736 22.4405 11.3164 22.4946 11.9084 22.4996Z" fill="white"/>
</svg>
