<svg xmlns="http://www.w3.org/2000/svg" viewBox="0 0 705.74078 202.87906" height="32" width="111.31609" version="1.1">
  <g style="fill:#ffffff;fill-opacity:1;fill-rule:nonzero;stroke:none" transform="matrix(1.3333333,0,0,-1.3333333,-43.980532,278.84599)">
    <g transform="translate(187.9399,64.1328)">
      <path d="m 0,0 v -6.801 h -34.627 v 62.636 h 7.156 V 0 Z"/>
    </g>
    <g transform="translate(229.2627,83.9082)">
      <path d="M 0,0 C -0.447,9.038 -6.533,14.764 -15.748,14.764 -24.697,14.764 -31.139,8.948 -32.213,0 Z m 6.263,-5.727 h -38.476 c 1.253,-9.216 7.963,-15.033 17.091,-15.033 5.816,0 10.916,2.059 14.585,5.906 l 3.848,-4.116 c -4.475,-5.01 -11.096,-7.874 -18.97,-7.874 -13.87,0 -23.443,9.752 -23.443,23.802 0,14.049 9.663,23.802 23.354,23.802 C -0.537,20.848 6.979,10.29 6.263,-5.727"/>
    </g>
    <g transform="translate(274.1899,73.6182)">
      <path d="m 0,0 v 5.637 h -14.673 c -7.875,0 -11.992,-2.415 -11.992,-7.607 0,-5.188 4.207,-8.589 10.827,-8.589 C -7.874,-10.559 -1.79,-6.531 0,0 m 0.09,-9.038 c -3.758,-5.1 -9.753,-7.605 -17.269,-7.605 -9.754,0 -16.016,6.263 -16.016,14.406 0,8.231 6.53,13.422 17.626,13.512 h 15.481 v 2.773 c 0,6.889 -4.295,11.006 -12.618,11.006 -5.19,0 -10.021,-1.969 -14.942,-5.368 l -2.953,5.1 c 6.084,4.026 11.185,6.352 19.238,6.352 11.632,0 18.074,-6.173 18.164,-16.284 l 0.089,-31.14 h -6.8 z"/>
    </g>
    <g transform="translate(336.5859,86.4131)">
      <path d="m 0,0 v -29.081 h -6.98 v 27.202 c 0,8.322 -5.011,13.243 -13.332,13.243 -9.307,-0.089 -15.033,-6.174 -15.837,-15.122 v -25.323 h -6.982 v 47.156 h 6.982 V 7.695 c 3.308,7.159 9.662,10.56 18.253,10.648 C -6.623,18.343 0,11.364 0,0"/>
    </g>
    <g transform="translate(401.0908,111.0205)">
      <path d="m 0,0 -4.296,-5.459 c -4.832,4.921 -11.632,7.875 -18.52,7.875 -14.14,0 -25.503,-10.917 -25.503,-24.696 0,-13.692 11.363,-24.697 25.503,-24.697 6.888,0 13.598,2.864 18.52,7.516 l 4.385,-4.922 c -6.173,-5.815 -14.586,-9.662 -23.265,-9.662 -18.074,0 -32.391,14.047 -32.391,31.765 0,17.538 14.496,31.406 32.66,31.406 C -14.318,9.126 -5.997,5.637 0,0"/>
    </g>
    <g transform="translate(411.9814,80.8662)">
      <path d="m 0,0 c 0,-10.38 7.069,-17.539 16.911,-17.539 9.845,0 16.912,7.159 16.912,17.539 0,10.29 -7.067,17.448 -16.912,17.448 C 7.069,17.448 0,10.29 0,0 m 40.803,0.09 c 0,-14.14 -9.932,-23.892 -23.892,-23.892 -13.958,0 -23.89,9.752 -23.89,23.892 0,14.048 9.932,23.712 23.89,23.712 13.96,0 23.892,-9.664 23.892,-23.712"/>
    </g>
    <g transform="translate(500.002,80.7764)">
      <path d="m 0,0 c 0,10.29 -7.067,17.717 -17,17.717 -10.022,0 -17.092,-7.427 -17.092,-17.717 0,-10.2 7.07,-17.538 17.092,-17.538 9.933,0 17,7.338 17,17.538 M 6.979,-23.444 H 0 v 10.112 c -3.489,-6.622 -9.933,-10.469 -18.344,-10.469 -13.421,0 -22.727,9.932 -22.727,23.981 0,14.136 9.306,23.889 22.638,23.889 8.412,0 14.944,-3.846 18.433,-10.558 V 42.95 h 6.979 z"/>
    </g>
    <g transform="translate(555.9795,83.9082)">
      <path d="M 0,0 C -0.447,9.038 -6.531,14.764 -15.746,14.764 -24.695,14.764 -31.139,8.948 -32.213,0 Z m 6.265,-5.727 h -38.478 c 1.253,-9.216 7.965,-15.033 17.093,-15.033 5.815,0 10.916,2.059 14.584,5.906 l 3.849,-4.116 c -4.475,-5.01 -11.097,-7.874 -18.972,-7.874 -13.868,0 -23.444,9.752 -23.444,23.802 0,14.049 9.666,23.802 23.357,23.802 15.21,0.088 22.725,-10.47 22.011,-26.487"/>
    </g>
    <g transform="translate(128.0015,203.2275)">
      <path d="m 0,0 v -27.324 c 0,-6.056 0.394,-8.717 -4.325,-13.514 -1.346,-1.372 -2.778,-2.451 -4.286,-3.267 -2.44,-0.949 -4.891,-0.812 -8.615,-0.812 h -6.643 -7.35 -15.034 c -3.285,0 -5.966,-2.652 -5.966,-5.888 v -35.327 c 0,-3.254 2.681,-5.908 5.966,-5.908 h 10.29 16.888 10.536 c 3.282,0 5.953,2.654 5.953,5.908 v 27.323 c 0,6.056 -0.396,8.717 4.325,13.514 1.345,1.373 2.777,2.451 4.286,3.265 2.438,0.951 4.891,0.811 8.615,0.811 h 6.641 7.352 15.034 c 3.284,0 5.964,2.655 5.964,5.892 V 0 c 0,3.252 -2.68,5.907 -5.964,5.907 H 33.377 16.487 5.953 C 2.669,5.907 0,3.252 0,0"/>
    </g>
    <g transform="translate(38.1714,102.4551)">
      <path d="m 0,0 h 31.244 c 2.882,0 5.216,-2.336 5.216,-5.212 v -31.694 c 0,-2.867 -2.334,-5.201 -5.216,-5.201 H 0 c -2.872,0 -5.186,2.334 -5.186,5.201 V -5.212 C -5.186,-2.336 -2.872,0 0,0"/>
    </g>
  </g>
</svg>
